<?xml version="1.0" encoding="utf-8"?>
<!-- Generator: Adobe Illustrator 21.0.0, SVG Export Plug-In . SVG Version: 6.00 Build 0)  -->
<svg version="1.1" id="隔离模式" xmlns="http://www.w3.org/2000/svg" xmlns:xlink="http://www.w3.org/1999/xlink" x="0px"
	 y="0px" viewBox="0 0 46.2 47.9" style="enable-background:new 0 0 46.2 47.9;" xml:space="preserve">
<style type="text/css">
	.st0{fill:#FFFFFF;stroke:url(#SVGID_1_);stroke-width:2;stroke-linecap:round;stroke-linejoin:round;stroke-miterlimit:10;}
	.st1{fill:#FFFFFF;stroke:url(#SVGID_2_);stroke-width:2;stroke-linecap:round;stroke-linejoin:round;stroke-miterlimit:10;}
	.st2{fill:#FFFFFF;stroke:url(#SVGID_3_);stroke-width:2;stroke-linecap:round;stroke-linejoin:round;stroke-miterlimit:10;}
	.st3{fill:#FFFFFF;stroke:url(#SVGID_4_);stroke-width:2;stroke-linecap:round;stroke-linejoin:round;stroke-miterlimit:10;}
	.st4{fill:#FFFFFF;stroke:url(#SVGID_5_);stroke-width:2;stroke-linecap:round;stroke-linejoin:round;stroke-miterlimit:10;}
</style>
<linearGradient id="SVGID_1_" gradientUnits="userSpaceOnUse" x1="0" y1="23.8639" x2="18.8578" y2="23.8639">
	<stop  offset="0" style="stop-color:#5A8AE8"/>
	<stop  offset="1" style="stop-color:#5849DD"/>
</linearGradient>
<path class="st0" d="M15.2,34.5H3.7c-1.5,0-2.7-1.2-2.7-2.7v-16c0-1.5,1.2-2.7,2.7-2.7h11.5c1.5,0,2.7,1.2,2.7,2.7v16
	C17.9,33.3,16.7,34.5,15.2,34.5z"/>
<linearGradient id="SVGID_2_" gradientUnits="userSpaceOnUse" x1="27.2958" y1="23.8639" x2="46.1535" y2="23.8639">
	<stop  offset="0" style="stop-color:#5A8AE8"/>
	<stop  offset="1" style="stop-color:#5849DD"/>
</linearGradient>
<path class="st1" d="M42.5,34.5H31c-1.5,0-2.7-1.2-2.7-2.7v-16c0-1.5,1.2-2.7,2.7-2.7h11.5c1.5,0,2.7,1.2,2.7,2.7v16
	C45.2,33.3,44,34.5,42.5,34.5z"/>
<g>
	<linearGradient id="SVGID_3_" gradientUnits="userSpaceOnUse" x1="22.0768" y1="24.4449" x2="24.0768" y2="24.4449">
		<stop  offset="0" style="stop-color:#FF89A1"/>
		<stop  offset="1" style="stop-color:#FFB4A5"/>
	</linearGradient>
	<line class="st2" x1="23.1" y1="4.3" x2="23.1" y2="44.6"/>
	<linearGradient id="SVGID_4_" gradientUnits="userSpaceOnUse" x1="19.715" y1="3.3617" x2="26.4385" y2="3.3617">
		<stop  offset="0" style="stop-color:#5A8AE8"/>
		<stop  offset="1" style="stop-color:#5849DD"/>
	</linearGradient>
	<circle class="st3" cx="23.1" cy="3.4" r="2.4"/>
	<linearGradient id="SVGID_5_" gradientUnits="userSpaceOnUse" x1="19.715" y1="44.556" x2="26.4385" y2="44.556">
		<stop  offset="0" style="stop-color:#5A8AE8"/>
		<stop  offset="1" style="stop-color:#5849DD"/>
	</linearGradient>
	<circle class="st4" cx="23.1" cy="44.6" r="2.4"/>
</g>
</svg>
