<?xml version="1.0" encoding="utf-8"?>
<!-- Generator: Adobe Illustrator 19.0.0, SVG Export Plug-In . SVG Version: 6.00 Build 0)  -->
<svg version="1.1" id="隔离模式" xmlns="http://www.w3.org/2000/svg" xmlns:xlink="http://www.w3.org/1999/xlink" x="0px"
	 y="0px" viewBox="0 0 57.4 39.7" style="enable-background:new 0 0 57.4 39.7;" xml:space="preserve">
<style type="text/css">
	.st0{fill:#FFFFFF;}
	.st1{fill:none;stroke:url(#SVGID_1_);stroke-width:2;stroke-linecap:round;stroke-linejoin:round;stroke-miterlimit:10;}
	.st2{fill:none;stroke:url(#SVGID_2_);stroke-width:2;stroke-linecap:round;stroke-linejoin:round;stroke-miterlimit:10;}
	.st3{fill:none;stroke:url(#SVGID_3_);stroke-width:2;stroke-linecap:round;stroke-linejoin:round;stroke-miterlimit:10;}
	.st4{fill:none;stroke:url(#SVGID_4_);stroke-width:2;stroke-linecap:round;stroke-linejoin:round;stroke-miterlimit:10;}
	.st5{fill:#FFFFFF;stroke:url(#SVGID_5_);stroke-width:2;stroke-linecap:round;stroke-linejoin:round;stroke-miterlimit:10;}
	.st6{fill:#FFFFFF;stroke:url(#SVGID_6_);stroke-width:2;stroke-linecap:round;stroke-linejoin:round;stroke-miterlimit:10;}
	.st7{fill:#FFFFFF;stroke:url(#SVGID_7_);stroke-width:2;stroke-linecap:round;stroke-linejoin:round;stroke-miterlimit:10;}
</style>
<path class="st0" d="M22.3,1h-8.8c-1.6,0-2.9,1.2-2.9,2.7v26.7c0,1.5,1.3,2.7,2.9,2.7h30.4c1.6,0,2.9-1.2,2.9-2.7V3.7
	c0-1.5-1.3-2.7-2.9-2.7h-9.4"/>
<linearGradient id="SVGID_1_" gradientUnits="userSpaceOnUse" x1="37.2834" y1="38.7374" x2="57.3599" y2="38.7374">
	<stop  offset="0" style="stop-color:#5A8AE8"/>
	<stop  offset="1" style="stop-color:#5849DD"/>
</linearGradient>
<line class="st1" x1="56.4" y1="38.7" x2="38.3" y2="38.7"/>
<linearGradient id="SVGID_2_" gradientUnits="userSpaceOnUse" x1="20.5149" y1="38.7374" x2="32.5193" y2="38.7374">
	<stop  offset="0" style="stop-color:#FF89A1"/>
	<stop  offset="1" style="stop-color:#FFB4A5"/>
</linearGradient>
<line class="st2" x1="31.5" y1="38.7" x2="21.5" y2="38.7"/>
<linearGradient id="SVGID_3_" gradientUnits="userSpaceOnUse" x1="0" y1="38.7374" x2="15.9925" y2="38.7374">
	<stop  offset="0" style="stop-color:#5A8AE8"/>
	<stop  offset="1" style="stop-color:#5849DD"/>
</linearGradient>
<line class="st3" x1="15" y1="38.7" x2="1" y2="38.7"/>
<linearGradient id="SVGID_4_" gradientUnits="userSpaceOnUse" x1="9.5851" y1="17.0354" x2="47.7746" y2="17.0354">
	<stop  offset="0" style="stop-color:#5A8AE8"/>
	<stop  offset="1" style="stop-color:#5849DD"/>
</linearGradient>
<path class="st4" d="M22.3,1h-8.8c-1.6,0-2.9,1.2-2.9,2.7v26.7c0,1.5,1.3,2.7,2.9,2.7h30.4c1.6,0,2.9-1.2,2.9-2.7V3.7
	c0-1.5-1.3-2.7-2.9-2.7h-9.4"/>
<g>
	<linearGradient id="SVGID_5_" gradientUnits="userSpaceOnUse" x1="20.7796" y1="12.0004" x2="29.6799" y2="12.0004">
		<stop  offset="0" style="stop-color:#FF89A1"/>
		<stop  offset="1" style="stop-color:#FFB4A5"/>
	</linearGradient>
	<line class="st5" x1="28.7" y1="9.1" x2="21.8" y2="14.9"/>
	<linearGradient id="SVGID_6_" gradientUnits="userSpaceOnUse" x1="27.6799" y1="12.0004" x2="36.5801" y2="12.0004">
		<stop  offset="0" style="stop-color:#FF89A1"/>
		<stop  offset="1" style="stop-color:#FFB4A5"/>
	</linearGradient>
	<line class="st6" x1="28.7" y1="9.1" x2="35.6" y2="14.9"/>
	<linearGradient id="SVGID_7_" gradientUnits="userSpaceOnUse" x1="27.6799" y1="17.5065" x2="29.6799" y2="17.5065">
		<stop  offset="0" style="stop-color:#FF89A1"/>
		<stop  offset="1" style="stop-color:#FFB4A5"/>
	</linearGradient>
	<line class="st7" x1="28.7" y1="9.4" x2="28.7" y2="25.6"/>
</g>
</svg>
