<?xml version="1.0" encoding="utf-8"?>
<!-- Generator: Adobe Illustrator 21.0.0, SVG Export Plug-In . SVG Version: 6.00 Build 0)  -->
<svg version="1.1" id="图层_1" xmlns="http://www.w3.org/2000/svg" xmlns:xlink="http://www.w3.org/1999/xlink" x="0px" y="0px"
	 viewBox="0 0 42.2 41.4" style="enable-background:new 0 0 42.2 41.4;" xml:space="preserve">
<style type="text/css">
	.st0{fill:#FFFFFF;}
	.st1{fill:url(#SVGID_1_);}
	.st2{fill:url(#SVGID_2_);}
	.st3{fill:none;stroke:url(#SVGID_3_);stroke-width:2;stroke-miterlimit:10;}
	.st4{fill:#FFFFFF;stroke:url(#SVGID_4_);stroke-width:2;stroke-miterlimit:10;}
</style>
<g>
	<path class="st0" d="M40.2,30.7H13.4c-1.1,0-2-0.9-2-2V2c0-1.1,0.9-2,2-2h26.8c1.1,0,2,0.9,2,2v26.8C42.2,29.8,41.3,30.7,40.2,30.7
		z"/>
	<g>
		<linearGradient id="SVGID_1_" gradientUnits="userSpaceOnUse" x1="11.4586" y1="15.3584" x2="42.1754" y2="15.3584">
			<stop  offset="0" style="stop-color:#FF89A1"/>
			<stop  offset="1" style="stop-color:#FFB4A5"/>
		</linearGradient>
		<path class="st1" d="M40.2,2l0,26.7l-26.7,0l0-26.7H40.2 M40.2,0H13.4c-1.1,0-2,0.9-2,2v26.8c0,1.1,0.9,2,2,2h26.8
			c1.1,0,2-0.9,2-2V2C42.2,0.9,41.3,0,40.2,0L40.2,0z"/>
	</g>
</g>
<g>
	<path class="st0" d="M28.7,41.4H2c-1.1,0-2-0.9-2-2V12.7c0-1.1,0.9-2,2-2h26.8c1.1,0,2,0.9,2,2v26.8C30.7,40.5,29.8,41.4,28.7,41.4
		z"/>
	<linearGradient id="SVGID_2_" gradientUnits="userSpaceOnUse" x1="6.171889e-06" y1="26.0668" x2="30.7168" y2="26.0668">
		<stop  offset="0" style="stop-color:#5A8AE8"/>
		<stop  offset="1" style="stop-color:#5849DD"/>
	</linearGradient>
	<path class="st2" d="M28.7,12.7l0,26.7L2,39.5l0-26.7H28.7 M28.7,10.7H2c-1.1,0-2,0.9-2,2v26.8c0,1.1,0.9,2,2,2h26.8
		c1.1,0,2-0.9,2-2V12.7C30.7,11.6,29.8,10.7,28.7,10.7L28.7,10.7z"/>
</g>
<path class="st0" d="M13.4,9.1h22.3v19.7H13.4V9.1z"/>
<linearGradient id="SVGID_3_" gradientUnits="userSpaceOnUse" x1="14.6893" y1="19.9192" x2="30.0734" y2="19.9192" gradientTransform="matrix(-1 0 0 -1 44.7627 39.8383)">
	<stop  offset="0" style="stop-color:#5A8AE8"/>
	<stop  offset="1" style="stop-color:#5849DD"/>
</linearGradient>
<path class="st3" d="M15.7,16.4v-1.5c0-0.9,0.7-1.6,1.6-1.6h10.1c0.9,0,1.6,0.7,1.6,1.6V25c0,0.9-0.7,1.6-1.6,1.6h-2.1"/>
<linearGradient id="SVGID_4_" gradientUnits="userSpaceOnUse" x1="15.5222" y1="19.5026" x2="30.0734" y2="19.5026" gradientTransform="matrix(-1 0 0 -1 44.7627 39.8383)">
	<stop  offset="0" style="stop-color:#FF89A1"/>
	<stop  offset="1" style="stop-color:#FFB4A5"/>
</linearGradient>
<path class="st4" d="M16.1,13.7c-0.3,0.3-0.5,0.7-0.5,1.1V25c0,0.9,0.7,1.6,1.6,1.6h10.1c0.4,0,0.8-0.2,1.1-0.5"/>
</svg>
