<?xml version="1.0" encoding="utf-8"?>
<!-- Generator: Adobe Illustrator 21.0.0, SVG Export Plug-In . SVG Version: 6.00 Build 0)  -->
<svg version="1.1" id="图层_1" xmlns="http://www.w3.org/2000/svg" xmlns:xlink="http://www.w3.org/1999/xlink" x="0px" y="0px"
	 viewBox="0 0 48.2 36.9" style="enable-background:new 0 0 48.2 36.9;" xml:space="preserve">
<style type="text/css">
	.st0{fill:none;stroke:url(#SVGID_1_);stroke-width:2;stroke-miterlimit:10;}
	.st1{fill:url(#SVGID_2_);}
	.st2{fill:url(#SVGID_3_);}
	.st3{fill:#FFFFFF;}
	.st4{fill:url(#SVGID_4_);}
	.st5{fill:url(#SVGID_5_);}
</style>
<linearGradient id="SVGID_1_" gradientUnits="userSpaceOnUse" x1="6.6483" y1="9.7646" x2="41.732" y2="9.7646">
	<stop  offset="0" style="stop-color:#5A8AE8"/>
	<stop  offset="1" style="stop-color:#5849DD"/>
</linearGradient>
<path class="st0" d="M7.6,19.5C7.6,9.3,15.1,1,24.2,1s16.5,8.3,16.5,18.5"/>
<linearGradient id="SVGID_2_" gradientUnits="userSpaceOnUse" x1="0" y1="28.8223" x2="3.7402" y2="28.8223">
	<stop  offset="0" style="stop-color:#FF8EA2"/>
	<stop  offset="0.9714" style="stop-color:#FEB8A4"/>
</linearGradient>
<path class="st1" d="M3.7,33.4c-0.1-0.4-0.2-0.8-0.2-1.2l-0.7-7.7c0-0.1,0-0.2,0-0.4l-0.2,0c0,0,0,0,0,0l-0.5,0
	c-1.3,0.1-2.2,1.2-2.1,2.5L0.4,31l0,0.4c0.1,0.9,0.7,1.6,1.4,1.9c0.3,0.1,0.7,0.2,1.1,0.2h0h0L3.7,33.4z"/>
<g>
	<linearGradient id="SVGID_3_" gradientUnits="userSpaceOnUse" x1="44.4297" y1="28.8225" x2="48.1699" y2="28.8225">
		<stop  offset="0" style="stop-color:#5A8AE8"/>
		<stop  offset="1" style="stop-color:#5849DD"/>
	</linearGradient>
	<path class="st2" d="M45.4,24.2c0,0.1,0,0.2,0,0.4l-0.7,7.7c0,0.4-0.1,0.8-0.2,1.2l0.8,0.1c0.1,0,0.1,0,0.2,0
		c1.2,0,2.2-0.9,2.3-2.1l0.4-4.6c0.1-1-0.4-1.8-1.2-2.3c-0.3-0.1-0.6-0.2-0.9-0.3l-0.5,0c0,0,0,0,0,0L45.4,24.2L45.4,24.2z"/>
</g>
<g>
	<path class="st3" d="M12.8,21.5c-0.1-1.6-1.6-2.8-3.2-2.7l0,0l-0.1,0l-1.1,0.1l0,0L7.5,19c-0.7,0.1-1.3,0.2-1.9,0.5
		C4.8,20,4,20.6,3.6,21.4c-0.5,0.8-0.8,1.7-0.8,2.7c0,0.1,0,0.2,0,0.4l0.7,7.7c0,0.4,0.1,0.8,0.2,1.2c0.7,2.2,2.9,3.7,5.3,3.5
		l2.2-0.2c1.6-0.1,2.8-1.6,2.7-3.2L12.8,21.5z"/>
	<linearGradient id="SVGID_4_" gradientUnits="userSpaceOnUse" x1="8.3379" y1="18.7892" x2="8.3379" y2="36.8804">
		<stop  offset="0" style="stop-color:#5A8AE8"/>
		<stop  offset="1" style="stop-color:#5849DD"/>
	</linearGradient>
	<path class="st4" d="M9.9,20.3c0.7,0,1.4,0.6,1.4,1.3l1.1,12c0.1,0.8-0.5,1.5-1.3,1.6l-2.2,0.2c-0.1,0-0.2,0-0.3,0
		c-1.5,0-2.9-1-3.4-2.5C5.1,32.7,5,32.4,5,32.1l-0.7-7.7c0-0.1,0-0.2,0-0.3c0-0.7,0.2-1.3,0.5-1.9c0.4-0.6,0.9-1,1.5-1.3
		c0.4-0.2,0.9-0.3,1.3-0.4l0.9-0.1l1.2-0.1l0.1,0l0,0C9.8,20.3,9.9,20.3,9.9,20.3 M9.9,18.8c-0.1,0-0.2,0-0.3,0l0,0l-0.1,0l-1.1,0.1
		l0,0L7.5,19c-0.7,0.1-1.3,0.2-1.9,0.5C4.8,20,4,20.6,3.6,21.4c-0.5,0.8-0.8,1.7-0.8,2.7c0,0.1,0,0.2,0,0.4l0.7,7.7
		c0,0.4,0.1,0.8,0.2,1.2c0.7,2,2.6,3.5,4.8,3.5c0.1,0,0.3,0,0.4,0l2.2-0.2c1.6-0.1,2.8-1.6,2.7-3.2l-1.1-12
		C12.7,19.9,11.4,18.8,9.9,18.8L9.9,18.8z"/>
</g>
<g>
	<path class="st3" d="M45.3,23.4c0-0.1,0-0.1,0-0.2c0-0.2-0.1-0.3-0.1-0.5c0-0.1-0.1-0.2-0.1-0.3c0-0.1-0.1-0.3-0.1-0.4
		c0-0.1-0.1-0.2-0.2-0.3c-0.1-0.1-0.1-0.2-0.2-0.3c-0.1-0.1-0.1-0.2-0.2-0.3c-0.1-0.1-0.1-0.2-0.2-0.3c-0.1-0.1-0.2-0.2-0.2-0.2
		c-0.1-0.1-0.2-0.2-0.3-0.3c-0.1-0.1-0.2-0.1-0.2-0.2c-0.1-0.1-0.2-0.2-0.3-0.3c-0.1,0-0.1-0.1-0.2-0.1c-0.1-0.1-0.2-0.1-0.3-0.2
		c0,0,0,0,0,0c0,0,0,0,0,0c-0.2-0.1-0.3-0.1-0.5-0.2c-0.1,0-0.2-0.1-0.4-0.1c-0.3-0.1-0.6-0.2-1-0.2c0,0,0,0,0,0l-1.9-0.2l-0.1,0
		l-0.2,0c-1.6-0.1-3,1.1-3.2,2.7l-1.1,12c-0.1,1.6,1.1,3,2.7,3.2l2.2,0.2c0.3,0,0.6,0,0.9,0c0.1,0,0.2,0,0.3-0.1
		c0.5-0.1,0.9-0.2,1.4-0.4c0,0,0,0,0,0c1.3-0.6,2.3-1.7,2.7-3c0.1-0.4,0.2-0.8,0.3-1.2l0.7-7.7c0-0.1,0-0.2,0-0.4
		C45.4,23.9,45.4,23.7,45.3,23.4z"/>
	<linearGradient id="SVGID_5_" gradientUnits="userSpaceOnUse" x1="39.8335" y1="36.8804" x2="39.8335" y2="18.7892">
		<stop  offset="0" style="stop-color:#FF89A1"/>
		<stop  offset="1" style="stop-color:#FFB4A5"/>
	</linearGradient>
	<path class="st5" d="M38.3,20.8C38.3,20.8,38.3,20.8,38.3,20.8C38.3,20.8,38.3,20.8,38.3,20.8l0.2,0c0,0,0,0,0.1,0l0,0l1.9,0.2
		c0,0,0.1,0,0.1,0c0.2,0,0.4,0.1,0.5,0.1l0,0c0.1,0,0.1,0.1,0.2,0.1l0.2,0.1c0,0,0.1,0,0.1,0c0,0,0,0,0,0c0,0,0,0,0.1,0
		c0,0,0,0,0.1,0l0.1,0.1l0.1,0.1c0,0,0.1,0.1,0.1,0.1l0.1,0.1l0.1,0.1l0,0c0,0,0,0.1,0.1,0.1l0.1,0.1l0.1,0.1l0,0l0,0.1l0.1,0.1
		l0.1,0.1l0,0l0,0.1l0.1,0.1l0.1,0.1l0,0c0,0,0,0.1,0,0.1l0,0.1c0,0.1,0,0.1,0.1,0.2c0,0.1,0,0.2,0,0.2c0,0,0,0,0,0
		c0,0.1,0,0.1,0,0.2c0,0.1,0,0.3,0,0.4c0,0.1,0,0.2,0,0.2L42.7,32c0,0.2-0.1,0.5-0.2,0.7c-0.3,0.8-0.9,1.5-1.7,1.8c0,0-0.1,0-0.1,0
		c-0.2,0.1-0.5,0.2-0.8,0.2c-0.1,0-0.1,0-0.2,0c-0.1,0-0.1,0-0.2,0c-0.1,0-0.2,0-0.3,0l-2.2-0.2c-0.3,0-0.5-0.2-0.6-0.3
		c-0.1-0.1-0.2-0.3-0.2-0.7l1.1-12C37.4,21.2,37.8,20.8,38.3,20.8 M38.3,18.8c-1.5,0-2.8,1.2-2.9,2.7l-1.1,12
		c-0.1,1.6,1.1,3,2.7,3.2l2.2,0.2c0.1,0,0.3,0,0.4,0c0.1,0,0.3,0,0.4,0c0.1,0,0.2,0,0.3-0.1c0.5-0.1,0.9-0.2,1.4-0.4c0,0,0,0,0,0
		c1.3-0.6,2.3-1.7,2.7-3c0.1-0.4,0.2-0.8,0.3-1.2l0.7-7.7c0-0.1,0-0.2,0-0.4c0-0.2,0-0.5,0-0.7c0-0.1,0-0.1,0-0.2
		c0-0.2-0.1-0.3-0.1-0.5c0-0.1-0.1-0.2-0.1-0.3c0-0.1-0.1-0.3-0.1-0.4c0-0.1-0.1-0.2-0.2-0.3c-0.1-0.1-0.1-0.2-0.2-0.3
		c-0.1-0.1-0.1-0.2-0.2-0.3c-0.1-0.1-0.1-0.2-0.2-0.3c-0.1-0.1-0.2-0.2-0.2-0.2c-0.1-0.1-0.2-0.2-0.3-0.3c-0.1-0.1-0.2-0.1-0.2-0.2
		c-0.1-0.1-0.2-0.2-0.3-0.3c-0.1,0-0.1-0.1-0.2-0.1c-0.1-0.1-0.2-0.1-0.3-0.2c0,0,0,0,0,0c0,0,0,0,0,0c-0.2-0.1-0.3-0.1-0.5-0.2
		c-0.1,0-0.2-0.1-0.4-0.1c-0.3-0.1-0.6-0.2-1-0.2c0,0,0,0,0,0l-1.9-0.2l-0.1,0l-0.2,0C38.5,18.8,38.4,18.8,38.3,18.8L38.3,18.8z"/>
</g>
</svg>
