<?xml version="1.0" encoding="utf-8"?>
<!-- Generator: Adobe Illustrator 21.0.0, SVG Export Plug-In . SVG Version: 6.00 Build 0)  -->
<svg version="1.1" id="图层_1" xmlns="http://www.w3.org/2000/svg" xmlns:xlink="http://www.w3.org/1999/xlink" x="0px" y="0px"
	 viewBox="0 0 50.3 42" style="enable-background:new 0 0 50.3 42;" xml:space="preserve">
<style type="text/css">
	.st0{fill:#FFFFFF;}
	.st1{fill:none;stroke:url(#SVGID_1_);stroke-width:2;stroke-miterlimit:10;}
	.st2{fill:none;stroke:url(#SVGID_2_);stroke-width:2;stroke-miterlimit:10;}
	.st3{fill:none;stroke:url(#SVGID_3_);stroke-width:2;stroke-miterlimit:10;}
	.st4{fill:#FFFFFF;stroke:url(#SVGID_4_);stroke-width:2;stroke-linecap:round;stroke-linejoin:round;stroke-miterlimit:10;}
	.st5{fill:#FFFFFF;stroke:url(#SVGID_5_);stroke-width:2;stroke-linecap:round;stroke-linejoin:round;stroke-miterlimit:10;}
	.st6{fill:#FFFFFF;stroke:url(#SVGID_6_);stroke-width:2;stroke-linecap:round;stroke-linejoin:round;stroke-miterlimit:10;}
	.st7{fill:none;stroke:url(#SVGID_7_);stroke-width:2;stroke-linecap:round;stroke-linejoin:round;stroke-miterlimit:10;}
	.st8{fill:none;stroke:url(#SVGID_8_);stroke-width:2;stroke-linecap:round;stroke-linejoin:round;stroke-miterlimit:10;}
	.st9{fill:none;stroke:url(#SVGID_9_);stroke-width:2;stroke-miterlimit:10;}
	.st10{fill:none;stroke:url(#SVGID_10_);stroke-width:2;stroke-miterlimit:10;}
	.st11{fill:#FFFFFF;stroke:url(#SVGID_11_);stroke-width:2;stroke-miterlimit:10;}
</style>
<path class="st0" d="M39.2,29.2H11c-1.5,0-2.8-1.2-2.8-2.8V3.8C8.3,2.2,9.5,1,11,1h28.2c1.5,0,2.8,1.2,2.8,2.8v22.7
	C41.9,28,40.7,29.2,39.2,29.2z"/>
<linearGradient id="SVGID_1_" gradientUnits="userSpaceOnUse" x1="20.8598" y1="4.6496" x2="29.3249" y2="4.6496">
	<stop  offset="0" style="stop-color:#5A8AE8"/>
	<stop  offset="1" style="stop-color:#5849DD"/>
</linearGradient>
<line class="st1" x1="28.6" y1="1" x2="21.6" y2="8.3"/>
<linearGradient id="SVGID_2_" gradientUnits="userSpaceOnUse" x1="10.9844" y1="4.6496" x2="19.4495" y2="4.6496">
	<stop  offset="0" style="stop-color:#5A8AE8"/>
	<stop  offset="1" style="stop-color:#5849DD"/>
</linearGradient>
<line class="st2" x1="18.7" y1="1" x2="11.7" y2="8.3"/>
<linearGradient id="SVGID_3_" gradientUnits="userSpaceOnUse" x1="30.7352" y1="4.6496" x2="39.2002" y2="4.6496">
	<stop  offset="0" style="stop-color:#5A8AE8"/>
	<stop  offset="1" style="stop-color:#5849DD"/>
</linearGradient>
<line class="st3" x1="38.5" y1="1" x2="31.5" y2="8.3"/>
<linearGradient id="SVGID_4_" gradientUnits="userSpaceOnUse" x1="29.319" y1="38.0689" x2="37.7948" y2="38.0689">
	<stop  offset="0" style="stop-color:#FF89A1"/>
	<stop  offset="1" style="stop-color:#FFB4A5"/>
</linearGradient>
<path class="st4" d="M36.8,37.5c-2,0.5-4.2,1-6.5,1.2"/>
<linearGradient id="SVGID_5_" gradientUnits="userSpaceOnUse" x1="39.409" y1="36.1798" x2="41.8468" y2="36.1798">
	<stop  offset="0" style="stop-color:#FF89A1"/>
	<stop  offset="1" style="stop-color:#FFB4A5"/>
</linearGradient>
<path class="st5" d="M40.8,36.1c-0.1,0.1-0.3,0.1-0.4,0.2"/>
<linearGradient id="SVGID_6_" gradientUnits="userSpaceOnUse" x1="41.1251" y1="26.4922" x2="50.3317" y2="26.4922">
	<stop  offset="0" style="stop-color:#FF89A1"/>
	<stop  offset="1" style="stop-color:#FFB4A5"/>
</linearGradient>
<path class="st6" d="M42.1,18.5c4.4,2.2,7.2,5.2,7.2,8.5c0,2.8-2,5.4-5.3,7.4"/>
<linearGradient id="SVGID_7_" gradientUnits="userSpaceOnUse" x1="0" y1="28.7731" x2="26.1659" y2="28.7731">
	<stop  offset="0" style="stop-color:#5A8AE8"/>
	<stop  offset="1" style="stop-color:#5849DD"/>
</linearGradient>
<path class="st7" d="M25.2,38.9C11.8,38.9,1,33.6,1,27c0-3.3,2.7-6.3,7.1-8.4"/>
<linearGradient id="SVGID_8_" gradientUnits="userSpaceOnUse" x1="26.1659" y1="39.061" x2="22.2018" y2="39.061">
	<stop  offset="0" style="stop-color:#5A8AE8"/>
	<stop  offset="1" style="stop-color:#5849DD"/>
</linearGradient>
<polyline class="st8" points="23.2,37.1 25.2,38.9 23.4,41 "/>
<linearGradient id="SVGID_9_" gradientUnits="userSpaceOnUse" x1="7.2656" y1="15.1103" x2="42.9482" y2="15.1103">
	<stop  offset="0" style="stop-color:#5A8AE8"/>
	<stop  offset="1" style="stop-color:#5849DD"/>
</linearGradient>
<path class="st9" d="M39.2,29.2H11c-1.5,0-2.8-1.2-2.8-2.8V3.8C8.3,2.2,9.5,1,11,1h28.2c1.5,0,2.8,1.2,2.8,2.8v22.7
	C41.9,28,40.7,29.2,39.2,29.2z"/>
<linearGradient id="SVGID_10_" gradientUnits="userSpaceOnUse" x1="8.3835" y1="8.2991" x2="41.8648" y2="8.2991">
	<stop  offset="0" style="stop-color:#5A8AE8"/>
	<stop  offset="1" style="stop-color:#5849DD"/>
</linearGradient>
<line class="st10" x1="8.4" y1="8.3" x2="41.9" y2="8.3"/>
<linearGradient id="SVGID_11_" gradientUnits="userSpaceOnUse" x1="19.9227" y1="17.9431" x2="30.7186" y2="17.9431">
	<stop  offset="0" style="stop-color:#FF89A1"/>
	<stop  offset="1" style="stop-color:#FFB4A5"/>
</linearGradient>
<path class="st11" d="M29.3,17.2l-6.8-3.9c-0.5-0.3-1.1-0.2-1.4,0.2c-0.1,0.1-0.2,0.3-0.2,0.5v7.9c0,0.5,0.5,0.9,1,0.9
	c0.2,0,0.4-0.1,0.6-0.2l6.8-3.9c0.5-0.3,0.6-0.8,0.3-1.2C29.5,17.4,29.4,17.3,29.3,17.2L29.3,17.2z"/>
</svg>
