<?xml version="1.0" encoding="utf-8"?>
<!-- Generator: Adobe Illustrator 21.0.0, SVG Export Plug-In . SVG Version: 6.00 Build 0)  -->
<svg version="1.1" id="隔离模式" xmlns="http://www.w3.org/2000/svg" xmlns:xlink="http://www.w3.org/1999/xlink" x="0px"
	 y="0px" viewBox="0 0 44.4 43.4" style="enable-background:new 0 0 44.4 43.4;" xml:space="preserve">
<style type="text/css">
	.st0{fill:#FFFFFF;stroke:url(#SVGID_1_);stroke-width:2;stroke-linecap:round;stroke-linejoin:round;stroke-miterlimit:10;}
	.st1{fill:#FFFFFF;}
	.st2{fill:url(#SVGID_2_);}
	.st3{fill:#FFFFFF;stroke:url(#SVGID_3_);stroke-width:2;stroke-linecap:round;stroke-linejoin:round;stroke-miterlimit:10;}
	.st4{fill:url(#SVGID_4_);}
	.st5{fill:url(#SVGID_5_);}
</style>
<linearGradient id="SVGID_1_" gradientUnits="userSpaceOnUse" x1="0" y1="21.6759" x2="44.3603" y2="21.6759">
	<stop  offset="0" style="stop-color:#5A8AE8"/>
	<stop  offset="1" style="stop-color:#5849DD"/>
</linearGradient>
<path class="st0" d="M34.3,1H10.1C5.1,1,1,5.1,1,10.1v23.2c0,5,4.1,9.1,9.1,9.1h24.2c5,0,9.1-4.1,9.1-9.1V10.1
	C43.4,5.1,39.3,1,34.3,1z"/>
<g>
	<path class="st1" d="M36.5,5.7h-3.9c-1.3,0-2.3,1-2.3,2.3v3.9c0,1.3,1,2.3,2.3,2.3h3.9c1.3,0,2.3-1,2.3-2.3V8
		C38.8,6.7,37.8,5.7,36.5,5.7z"/>
	<g>
		<linearGradient id="SVGID_2_" gradientUnits="userSpaceOnUse" x1="30.3437" y1="9.9411" x2="38.8379" y2="9.9411">
			<stop  offset="0" style="stop-color:#FF89A1"/>
			<stop  offset="1" style="stop-color:#FFB4A5"/>
		</linearGradient>
		<path class="st2" d="M36.5,7.7c0.2,0,0.3,0.1,0.3,0.3v3.9c0,0.2-0.1,0.3-0.3,0.3h-3.9c-0.2,0-0.3-0.1-0.3-0.3V8
			c0-0.2,0.1-0.3,0.3-0.3H36.5 M36.5,5.7h-3.9c-1.3,0-2.3,1-2.3,2.3v3.9c0,1.3,1,2.3,2.3,2.3h3.9c1.3,0,2.3-1,2.3-2.3V8
			C38.8,6.7,37.8,5.7,36.5,5.7L36.5,5.7z"/>
	</g>
</g>
<linearGradient id="SVGID_3_" gradientUnits="userSpaceOnUse" x1="0" y1="18.1012" x2="44.3603" y2="18.1012">
	<stop  offset="0" style="stop-color:#5A8AE8"/>
	<stop  offset="1" style="stop-color:#5849DD"/>
</linearGradient>
<line class="st3" x1="1" y1="18.1" x2="43.4" y2="18.1"/>
<g>
	<path class="st1" d="M22.2,16.1c5.6,0,10.1,4.5,10.1,10.1c0,5.6-4.5,10.1-10.1,10.1s-10.1-4.5-10.1-10.1
		C12.1,20.7,16.6,16.1,22.2,16.1z"/>
	<linearGradient id="SVGID_4_" gradientUnits="userSpaceOnUse" x1="10.0944" y1="26.2145" x2="34.2659" y2="26.2145">
		<stop  offset="0" style="stop-color:#5A8AE8"/>
		<stop  offset="1" style="stop-color:#5849DD"/>
	</linearGradient>
	<path class="st4" d="M22.2,16.1c5.6,0,10.1,4.5,10.1,10.1c0,5.6-4.5,10.1-10.1,10.1s-10.1-4.5-10.1-10.1
		C12.1,20.7,16.6,16.1,22.2,16.1 M22.2,14.1c-6.7,0-12.1,5.4-12.1,12.1s5.4,12.1,12.1,12.1s12.1-5.4,12.1-12.1
		C34.3,19.6,28.8,14.1,22.2,14.1L22.2,14.1z"/>
</g>
<g>
	<circle class="st1" cx="22.2" cy="26.2" r="7.1"/>
	<linearGradient id="SVGID_5_" gradientUnits="userSpaceOnUse" x1="15.1201" y1="26.2144" x2="29.2402" y2="26.2144">
		<stop  offset="0" style="stop-color:#FF89A1"/>
		<stop  offset="1" style="stop-color:#FFB4A5"/>
	</linearGradient>
	<path class="st5" d="M22.2,21.2c2.8,0,5.1,2.3,5.1,5.1s-2.3,5.1-5.1,5.1s-5.1-2.3-5.1-5.1S19.4,21.2,22.2,21.2 M22.2,19.2
		c-3.9,0-7.1,3.2-7.1,7.1c0,3.9,3.2,7.1,7.1,7.1s7.1-3.2,7.1-7.1C29.2,22.3,26.1,19.2,22.2,19.2L22.2,19.2z"/>
</g>
</svg>
