<?xml version="1.0" encoding="utf-8"?>
<!-- Generator: Adobe Illustrator 21.0.0, SVG Export Plug-In . SVG Version: 6.00 Build 0)  -->
<svg version="1.1" id="隔离模式" xmlns="http://www.w3.org/2000/svg" xmlns:xlink="http://www.w3.org/1999/xlink" x="0px"
	 y="0px" viewBox="0 0 57.3 42.6" style="enable-background:new 0 0 57.3 42.6;" xml:space="preserve">
<style type="text/css">
	.st0{fill:#FFFFFF;stroke:url(#SVGID_1_);stroke-width:2;stroke-linecap:round;stroke-linejoin:round;stroke-miterlimit:10;}
	.st1{fill:none;stroke:url(#SVGID_2_);stroke-width:2;stroke-linecap:round;stroke-linejoin:round;stroke-miterlimit:10;}
	.st2{fill:#FFFFFF;stroke:url(#SVGID_3_);stroke-width:2;stroke-linecap:round;stroke-linejoin:round;stroke-miterlimit:10;}
	.st3{fill:none;stroke:url(#SVGID_4_);stroke-width:2;stroke-linecap:round;stroke-linejoin:round;stroke-miterlimit:10;}
	.st4{fill:none;stroke:url(#SVGID_5_);stroke-width:2;stroke-linecap:round;stroke-linejoin:round;stroke-miterlimit:10;}
	.st5{fill:#FFFFFF;stroke:#000000;stroke-miterlimit:10;}
	.st6{fill:none;stroke:url(#SVGID_6_);stroke-width:2;stroke-linecap:round;stroke-linejoin:round;stroke-miterlimit:10;}
	.st7{fill:none;stroke:url(#SVGID_7_);stroke-width:2;stroke-linecap:round;stroke-linejoin:round;stroke-miterlimit:10;}
	.st8{fill:#FFFFFF;stroke:url(#SVGID_8_);stroke-width:2;stroke-linecap:round;stroke-linejoin:round;stroke-miterlimit:10;}
</style>
<linearGradient id="SVGID_1_" gradientUnits="userSpaceOnUse" x1="5.4245" y1="21.3215" x2="40.9309" y2="21.3215">
	<stop  offset="0" style="stop-color:#5A8AE8"/>
	<stop  offset="1" style="stop-color:#5849DD"/>
</linearGradient>
<path class="st0" d="M23.5,9.6l10.3-7.8c2.5-1.9,6.2-0.1,6.2,3.1v32.9c0,3.2-3.7,5-6.2,3.1L23.5,33c-1.5-1.1-3.3-1.7-5.1-1.7H8.8
	c-1.3,0-2.4-1.1-2.4-2.4V13.7c0-1.3,1.1-2.4,2.4-2.4h9.5C20.2,11.3,22,10.7,23.5,9.6z"/>
<linearGradient id="SVGID_2_" gradientUnits="userSpaceOnUse" x1="31.8053" y1="21.3215" x2="40.9313" y2="21.3215">
	<stop  offset="0" style="stop-color:#5A8AE8"/>
	<stop  offset="1" style="stop-color:#5849DD"/>
</linearGradient>
<path class="st1" d="M33.7,1.8l-0.9,0.7v37.7l0.9,0.7c2.5,1.9,6.2,0.1,6.2-3.1V4.9C39.9,1.7,36.3-0.1,33.7,1.8z"/>
<linearGradient id="SVGID_3_" gradientUnits="userSpaceOnUse" x1="0" y1="21.5129" x2="7.4245" y2="21.5129">
	<stop  offset="0" style="stop-color:#FF89A1"/>
	<stop  offset="1" style="stop-color:#FFB4A5"/>
</linearGradient>
<path class="st2" d="M6.4,15.1H3c-1.1,0-2,0.9-2,2v8.8c0,1.1,0.9,2,2,2h3.4V15.1z"/>
<linearGradient id="SVGID_4_" gradientUnits="userSpaceOnUse" x1="5.4245" y1="21.3215" x2="40.9309" y2="21.3215">
	<stop  offset="0" style="stop-color:#5A8AE8"/>
	<stop  offset="1" style="stop-color:#5849DD"/>
</linearGradient>
<path class="st3" d="M23.5,9.6l10.3-7.8c2.5-1.9,6.2-0.1,6.2,3.1v32.9c0,3.2-3.7,5-6.2,3.1L23.5,33c-1.5-1.1-3.3-1.7-5.1-1.7H8.8
	c-1.3,0-2.4-1.1-2.4-2.4V13.7c0-1.3,1.1-2.4,2.4-2.4h9.5C20.2,11.3,22,10.7,23.5,9.6z"/>
<linearGradient id="SVGID_5_" gradientUnits="userSpaceOnUse" x1="14.0419" y1="25.1272" x2="20.5993" y2="25.1272">
	<stop  offset="0" style="stop-color:#5A8AE8"/>
	<stop  offset="1" style="stop-color:#5849DD"/>
</linearGradient>
<path class="st4" d="M19.6,25.1c0-1.2-1-2.3-2.3-2.3c-1.3,0-2.3,1-2.3,2.3s1,2.3,2.3,2.3C18.6,27.4,19.6,26.4,19.6,25.1z"/>
<path class="st5" d="M15.8,24.2"/>
<linearGradient id="SVGID_6_" gradientUnits="userSpaceOnUse" x1="44.5902" y1="21.5059" x2="49.4272" y2="21.5059">
	<stop  offset="0" style="stop-color:#5A8AE8"/>
	<stop  offset="1" style="stop-color:#5849DD"/>
</linearGradient>
<path class="st6" d="M45.6,14.8c0,0,6.4,6.4,0,13.5"/>
<linearGradient id="SVGID_7_" gradientUnits="userSpaceOnUse" x1="50.145" y1="21.4043" x2="57.3234" y2="21.4043">
	<stop  offset="0" style="stop-color:#5A8AE8"/>
	<stop  offset="1" style="stop-color:#5849DD"/>
</linearGradient>
<path class="st7" d="M51.1,9.1c0,0,11.7,11.6,0,24.7"/>
<linearGradient id="SVGID_8_" gradientUnits="userSpaceOnUse" x1="8.6144" y1="21.0812" x2="48.0087" y2="21.0812">
	<stop  offset="0" style="stop-color:#FF89A1"/>
	<stop  offset="1" style="stop-color:#FFB4A5"/>
</linearGradient>
<line class="st8" x1="9.6" y1="3.1" x2="47" y2="39"/>
</svg>
