<?xml version="1.0" encoding="utf-8"?>
<!-- Generator: Adobe Illustrator 19.0.0, SVG Export Plug-In . SVG Version: 6.00 Build 0)  -->
<svg version="1.1" id="隔离模式" xmlns="http://www.w3.org/2000/svg" xmlns:xlink="http://www.w3.org/1999/xlink" x="0px"
	 y="0px" viewBox="0 0 47.7 38.2" style="enable-background:new 0 0 47.7 38.2;" xml:space="preserve">
<style type="text/css">
	.st0{fill:#FFFFFF;}
	.st1{fill:#FFFFFF;stroke:url(#SVGID_1_);stroke-width:2;stroke-linecap:round;stroke-linejoin:round;stroke-miterlimit:10;}
	.st2{fill:#FFFFFF;stroke:url(#SVGID_2_);stroke-width:2;stroke-linecap:round;stroke-linejoin:round;stroke-miterlimit:10;}
	.st3{fill:#FFFFFF;stroke:url(#SVGID_3_);stroke-width:2;stroke-linecap:round;stroke-linejoin:round;stroke-miterlimit:10;}
	.st4{fill:url(#SVGID_4_);}
	.st5{fill:#FFFFFF;stroke:url(#SVGID_5_);stroke-width:2;stroke-linecap:round;stroke-linejoin:round;stroke-miterlimit:10;}
	.st6{fill:#FFFFFF;stroke:url(#SVGID_6_);stroke-width:2;stroke-linecap:round;stroke-linejoin:round;stroke-miterlimit:10;}
	.st7{fill:#FFFFFF;stroke:url(#SVGID_7_);stroke-width:2;stroke-linecap:round;stroke-linejoin:round;stroke-miterlimit:10;}
	.st8{fill:#FFFFFF;stroke:url(#SVGID_8_);stroke-width:2;stroke-linecap:round;stroke-linejoin:round;stroke-miterlimit:10;}
</style>
<path class="st0" d="M7.4,37.2l-0.5-0.7c-2.7-3.7-4.2-8.2-4.2-12.8c0-11.8,9.5-21.4,21.4-21.4c11.8,0,21.4,9.5,21.4,21.4
	c0,4.6-1.5,9.2-4.3,12.8l-0.6,0.7H7.4z"/>
<linearGradient id="SVGID_1_" gradientUnits="userSpaceOnUse" x1="0.3547" y1="19.0977" x2="47.7229" y2="19.0977">
	<stop  offset="0" style="stop-color:#5A8AE8"/>
	<stop  offset="1" style="stop-color:#5849DD"/>
</linearGradient>
<path class="st1" d="M42.1,37.2c3-3.8,4.6-8.7,4.6-13.5C46.6,11.2,36.4,1,24,1l0,0C11.5,1,1.4,11.2,1.4,23.7c0,4.8,1.6,9.7,4.5,13.5
	"/>
<linearGradient id="SVGID_2_" gradientUnits="userSpaceOnUse" x1="13.6697" y1="23.6841" x2="34.4079" y2="23.6841">
	<stop  offset="0" style="stop-color:#5A8AE8"/>
	<stop  offset="1" style="stop-color:#5849DD"/>
</linearGradient>
<circle class="st2" cx="24" cy="23.7" r="9.4"/>
<linearGradient id="SVGID_3_" gradientUnits="userSpaceOnUse" x1="24.2783" y1="15.5649" x2="30.9267" y2="15.5649">
	<stop  offset="0" style="stop-color:#5A8AE8"/>
	<stop  offset="1" style="stop-color:#5849DD"/>
</linearGradient>
<line class="st3" x1="25.3" y1="21.3" x2="29.9" y2="9.8"/>
<g>
	<path class="st0" d="M24,21.1c-1.4,0-2.6,1.2-2.6,2.6c0,1.4,1.2,2.6,2.6,2.6c1.4,0,2.6-1.2,2.6-2.6C26.7,22.2,25.5,21.1,24,21.1z"
		/>
	<linearGradient id="SVGID_4_" gradientUnits="userSpaceOnUse" x1="19.4098" y1="23.6841" x2="28.6677" y2="23.6841">
		<stop  offset="0" style="stop-color:#FF89A1"/>
		<stop  offset="1" style="stop-color:#FFB4A5"/>
	</linearGradient>
	<path class="st4" d="M24,21.1c1.4,0,2.6,1.2,2.6,2.6s-1.2,2.6-2.6,2.6s-2.6-1.2-2.6-2.6S22.6,21.1,24,21.1 M24,19.1
		c-2.6,0-4.6,2.1-4.6,4.6s2.1,4.6,4.6,4.6s4.6-2.1,4.6-4.6S26.6,19.1,24,19.1L24,19.1z"/>
</g>
<linearGradient id="SVGID_5_" gradientUnits="userSpaceOnUse" x1="23.1627" y1="6.7582" x2="25.1627" y2="6.7582">
	<stop  offset="0" style="stop-color:#FF89A1"/>
	<stop  offset="1" style="stop-color:#FFB4A5"/>
</linearGradient>
<line class="st5" x1="24.2" y1="6.1" x2="24.2" y2="7.4"/>
<linearGradient id="SVGID_6_" gradientUnits="userSpaceOnUse" x1="13.8426" y1="9.3284" x2="15.8426" y2="9.3284" gradientTransform="matrix(0 1 -1 0 50.3854 9.8021)">
	<stop  offset="0" style="stop-color:#FF89A1"/>
	<stop  offset="1" style="stop-color:#FFB4A5"/>
</linearGradient>
<line class="st6" x1="41.9" y1="24.6" x2="40.3" y2="24.6"/>
<linearGradient id="SVGID_7_" gradientUnits="userSpaceOnUse" x1="13.8426" y1="42.6175" x2="15.8426" y2="42.6175" gradientTransform="matrix(0 1 -1 0 50.3854 9.8021)">
	<stop  offset="0" style="stop-color:#FF89A1"/>
	<stop  offset="1" style="stop-color:#FFB4A5"/>
</linearGradient>
<line class="st7" x1="8.6" y1="24.6" x2="7" y2="24.6"/>
<linearGradient id="SVGID_8_" gradientUnits="userSpaceOnUse" x1="0" y1="37.1954" x2="47.4167" y2="37.1954">
	<stop  offset="0" style="stop-color:#FF89A1"/>
	<stop  offset="1" style="stop-color:#FFB4A5"/>
</linearGradient>
<line class="st8" x1="1" y1="37.2" x2="46.4" y2="37.2"/>
</svg>
